<svg version="1.1" xmlns="http://www.w3.org/2000/svg" viewBox="0 0 586.2192402499998 142.24418349999993" width="586.2192402499998" height="142.24418349999993">
  <!-- svg-source:excalidraw -->
  
  <defs>
    <style class="style-fonts">
      @font-face {
        font-family: "Virgil";
        src: url("https://excalidraw.com/Virgil.woff2");
      }
      @font-face {
        font-family: "Cascadia";
        src: url("https://excalidraw.com/Cascadia.woff2");
      }
      @font-face {
        font-family: "Assistant";
        src: url("https://app.excalidraw.com//dist/excalidraw-assets/Assistant-Regular.woff2");
      }
    </style>
    
  </defs>
  <g stroke-linecap="round"><g transform="translate(568.7140322499998 19.49701200000007) rotate(0 0.2265625 25.403645833333286)"><path d="M0 0 C0.08 8.47, 0.38 42.34, 0.45 50.81 M0 0 C0.08 8.47, 0.38 42.34, 0.45 50.81" stroke="#1e1e1e" stroke-width="1" fill="none"></path></g></g><mask></mask><g stroke-linecap="round"><g transform="translate(427.2315559166668 72.22834200000003) rotate(0 0.2916666666666856 24.679687499999943)"><path d="M0 0 C0.1 8.23, 0.49 41.13, 0.58 49.36 M0 0 C0.1 8.23, 0.49 41.13, 0.58 49.36" stroke="#1e1e1e" stroke-width="1" fill="none"></path></g></g><mask></mask><g stroke-linecap="round"><g transform="translate(214.47757575000003 19.497012166666707) rotate(0 0.2916666666666856 24.679687499999957)"><path d="M0 0 C0.1 8.23, 0.49 41.13, 0.58 49.36 M0 0 C0.1 8.23, 0.49 41.13, 0.58 49.36" stroke="#1e1e1e" stroke-width="1" fill="none"></path></g></g><mask></mask><g stroke-linecap="round"><g transform="translate(73.19132816666627 19.373313929432044) rotate(0 247.74423234350976 0.04795396709732813)"><path d="M0.51 -0.24 C82.96 -0.21, 412.39 0.35, 494.98 0.34" stroke="#1e1e1e" stroke-width="1.5" fill="none" stroke-dasharray="8 9"></path></g></g><mask></mask><g stroke-linecap="round" transform="translate(65.68611949999956 12.153478624999991) rotate(0 7.505208333333343 7.343532986111114)"><path d="M15.01 7.34 C15.01 7.77, 14.97 8.2, 14.9 8.62 C14.82 9.04, 14.71 9.46, 14.56 9.86 C14.41 10.25, 14.22 10.65, 14 11.02 C13.79 11.38, 13.53 11.74, 13.25 12.06 C12.98 12.39, 12.66 12.7, 12.33 12.97 C12 13.24, 11.63 13.49, 11.26 13.7 C10.88 13.92, 10.48 14.1, 10.07 14.24 C9.66 14.39, 9.24 14.5, 8.81 14.58 C8.38 14.65, 7.94 14.69, 7.51 14.69 C7.07 14.69, 6.63 14.65, 6.2 14.58 C5.77 14.5, 5.35 14.39, 4.94 14.24 C4.53 14.1, 4.13 13.92, 3.75 13.7 C3.38 13.49, 3.01 13.24, 2.68 12.97 C2.35 12.7, 2.04 12.39, 1.76 12.06 C1.48 11.74, 1.22 11.38, 1.01 11.02 C0.79 10.65, 0.6 10.25, 0.45 9.86 C0.3 9.46, 0.19 9.04, 0.11 8.62 C0.04 8.2, 0 7.77, 0 7.34 C0 6.92, 0.04 6.49, 0.11 6.07 C0.19 5.65, 0.3 5.23, 0.45 4.83 C0.6 4.43, 0.79 4.04, 1.01 3.67 C1.22 3.3, 1.48 2.95, 1.76 2.62 C2.04 2.3, 2.35 1.99, 2.68 1.72 C3.01 1.44, 3.38 1.2, 3.75 0.98 C4.13 0.77, 4.53 0.59, 4.94 0.44 C5.35 0.3, 5.77 0.19, 6.2 0.11 C6.63 0.04, 7.07 0, 7.51 0 C7.94 0, 8.38 0.04, 8.81 0.11 C9.24 0.19, 9.66 0.3, 10.07 0.44 C10.48 0.59, 10.88 0.77, 11.26 0.98 C11.63 1.2, 12 1.44, 12.33 1.72 C12.66 1.99, 12.98 2.3, 13.25 2.62 C13.53 2.95, 13.79 3.3, 14 3.67 C14.22 4.04, 14.41 4.43, 14.56 4.83 C14.71 5.23, 14.82 5.65, 14.9 6.07 C14.97 6.49, 14.99 7.13, 15.01 7.34 C15.03 7.56, 15.03 7.13, 15.01 7.34" stroke="none" stroke-width="0" fill="#868e96"></path><path d="M15.01 7.34 C15.01 7.77, 14.97 8.2, 14.9 8.62 C14.82 9.04, 14.71 9.46, 14.56 9.86 C14.41 10.25, 14.22 10.65, 14 11.02 C13.79 11.38, 13.53 11.74, 13.25 12.06 C12.98 12.39, 12.66 12.7, 12.33 12.97 C12 13.24, 11.63 13.49, 11.26 13.7 C10.88 13.92, 10.48 14.1, 10.07 14.24 C9.66 14.39, 9.24 14.5, 8.81 14.58 C8.38 14.65, 7.94 14.69, 7.51 14.69 C7.07 14.69, 6.63 14.65, 6.2 14.58 C5.77 14.5, 5.35 14.39, 4.94 14.24 C4.53 14.1, 4.13 13.92, 3.75 13.7 C3.38 13.49, 3.01 13.24, 2.68 12.97 C2.35 12.7, 2.04 12.39, 1.76 12.06 C1.48 11.74, 1.22 11.38, 1.01 11.02 C0.79 10.65, 0.6 10.25, 0.45 9.86 C0.3 9.46, 0.19 9.04, 0.11 8.62 C0.04 8.2, 0 7.77, 0 7.34 C0 6.92, 0.04 6.49, 0.11 6.07 C0.19 5.65, 0.3 5.23, 0.45 4.83 C0.6 4.43, 0.79 4.04, 1.01 3.67 C1.22 3.3, 1.48 2.95, 1.76 2.62 C2.04 2.3, 2.35 1.99, 2.68 1.72 C3.01 1.44, 3.38 1.2, 3.75 0.98 C4.13 0.77, 4.53 0.59, 4.94 0.44 C5.35 0.3, 5.77 0.19, 6.2 0.11 C6.63 0.04, 7.07 0, 7.51 0 C7.94 0, 8.38 0.04, 8.81 0.11 C9.24 0.19, 9.66 0.3, 10.07 0.44 C10.48 0.59, 10.88 0.77, 11.26 0.98 C11.63 1.2, 12 1.44, 12.33 1.72 C12.66 1.99, 12.98 2.3, 13.25 2.62 C13.53 2.95, 13.79 3.3, 14 3.67 C14.22 4.04, 14.41 4.43, 14.56 4.83 C14.71 5.23, 14.82 5.65, 14.9 6.07 C14.97 6.49, 14.99 7.13, 15.01 7.34 C15.03 7.56, 15.03 7.13, 15.01 7.34" stroke="#1e1e1e" stroke-width="1" fill="none"></path></g><g stroke-linecap="round" transform="translate(136.47507722619014 12.153478624999991) rotate(0 7.505208333333343 7.343532986111114)"><path d="M15.01 7.34 C15.01 7.77, 14.97 8.2, 14.9 8.62 C14.82 9.04, 14.71 9.46, 14.56 9.86 C14.41 10.25, 14.22 10.65, 14 11.02 C13.79 11.38, 13.53 11.74, 13.25 12.06 C12.98 12.39, 12.66 12.7, 12.33 12.97 C12 13.24, 11.63 13.49, 11.26 13.7 C10.88 13.92, 10.48 14.1, 10.07 14.24 C9.66 14.39, 9.24 14.5, 8.81 14.58 C8.38 14.65, 7.94 14.69, 7.51 14.69 C7.07 14.69, 6.63 14.65, 6.2 14.58 C5.77 14.5, 5.35 14.39, 4.94 14.24 C4.53 14.1, 4.13 13.92, 3.75 13.7 C3.38 13.49, 3.01 13.24, 2.68 12.97 C2.35 12.7, 2.04 12.39, 1.76 12.06 C1.48 11.74, 1.22 11.38, 1.01 11.02 C0.79 10.65, 0.6 10.25, 0.45 9.86 C0.3 9.46, 0.19 9.04, 0.11 8.62 C0.04 8.2, 0 7.77, 0 7.34 C0 6.92, 0.04 6.49, 0.11 6.07 C0.19 5.65, 0.3 5.23, 0.45 4.83 C0.6 4.43, 0.79 4.04, 1.01 3.67 C1.22 3.3, 1.48 2.95, 1.76 2.62 C2.04 2.3, 2.35 1.99, 2.68 1.72 C3.01 1.44, 3.38 1.2, 3.75 0.98 C4.13 0.77, 4.53 0.59, 4.94 0.44 C5.35 0.3, 5.77 0.19, 6.2 0.11 C6.63 0.04, 7.07 0, 7.51 0 C7.94 0, 8.38 0.04, 8.81 0.11 C9.24 0.19, 9.66 0.3, 10.07 0.44 C10.48 0.59, 10.88 0.77, 11.26 0.98 C11.63 1.2, 12 1.44, 12.33 1.72 C12.66 1.99, 12.98 2.3, 13.25 2.62 C13.53 2.95, 13.79 3.3, 14 3.67 C14.22 4.04, 14.41 4.43, 14.56 4.83 C14.71 5.23, 14.82 5.65, 14.9 6.07 C14.97 6.49, 14.99 7.13, 15.01 7.34 C15.03 7.56, 15.03 7.13, 15.01 7.34" stroke="none" stroke-width="0" fill="#868e96"></path><path d="M15.01 7.34 C15.01 7.77, 14.97 8.2, 14.9 8.62 C14.82 9.04, 14.71 9.46, 14.56 9.86 C14.41 10.25, 14.22 10.65, 14 11.02 C13.79 11.38, 13.53 11.74, 13.25 12.06 C12.98 12.39, 12.66 12.7, 12.33 12.97 C12 13.24, 11.63 13.49, 11.26 13.7 C10.88 13.92, 10.48 14.1, 10.07 14.24 C9.66 14.39, 9.24 14.5, 8.81 14.58 C8.38 14.65, 7.94 14.69, 7.51 14.69 C7.07 14.69, 6.63 14.65, 6.2 14.58 C5.77 14.5, 5.35 14.39, 4.94 14.24 C4.53 14.1, 4.13 13.92, 3.75 13.7 C3.38 13.49, 3.01 13.24, 2.68 12.97 C2.35 12.7, 2.04 12.39, 1.76 12.06 C1.48 11.74, 1.22 11.38, 1.01 11.02 C0.79 10.65, 0.6 10.25, 0.45 9.86 C0.3 9.46, 0.19 9.04, 0.11 8.62 C0.04 8.2, 0 7.77, 0 7.34 C0 6.92, 0.04 6.49, 0.11 6.07 C0.19 5.65, 0.3 5.23, 0.45 4.83 C0.6 4.43, 0.79 4.04, 1.01 3.67 C1.22 3.3, 1.48 2.95, 1.76 2.62 C2.04 2.3, 2.35 1.99, 2.68 1.72 C3.01 1.44, 3.38 1.2, 3.75 0.98 C4.13 0.77, 4.53 0.59, 4.94 0.44 C5.35 0.3, 5.77 0.19, 6.2 0.11 C6.63 0.04, 7.07 0, 7.51 0 C7.94 0, 8.38 0.04, 8.81 0.11 C9.24 0.19, 9.66 0.3, 10.07 0.44 C10.48 0.59, 10.88 0.77, 11.26 0.98 C11.63 1.2, 12 1.44, 12.33 1.72 C12.66 1.99, 12.98 2.3, 13.25 2.62 C13.53 2.95, 13.79 3.3, 14 3.67 C14.22 4.04, 14.41 4.43, 14.56 4.83 C14.71 5.23, 14.82 5.65, 14.9 6.07 C14.97 6.49, 14.99 7.13, 15.01 7.34 C15.03 7.56, 15.03 7.13, 15.01 7.34" stroke="#1e1e1e" stroke-width="1" fill="none"></path></g><g stroke-linecap="round" transform="translate(207.26403495238065 12.153478624999991) rotate(0 7.505208333333343 7.343532986111114)"><path d="M15.01 7.34 C15.01 7.77, 14.97 8.2, 14.9 8.62 C14.82 9.04, 14.71 9.46, 14.56 9.86 C14.41 10.25, 14.22 10.65, 14 11.02 C13.79 11.38, 13.53 11.74, 13.25 12.06 C12.98 12.39, 12.66 12.7, 12.33 12.97 C12 13.24, 11.63 13.49, 11.26 13.7 C10.88 13.92, 10.48 14.1, 10.07 14.24 C9.66 14.39, 9.24 14.5, 8.81 14.58 C8.38 14.65, 7.94 14.69, 7.51 14.69 C7.07 14.69, 6.63 14.65, 6.2 14.58 C5.77 14.5, 5.35 14.39, 4.94 14.24 C4.53 14.1, 4.13 13.92, 3.75 13.7 C3.38 13.49, 3.01 13.24, 2.68 12.97 C2.35 12.7, 2.04 12.39, 1.76 12.06 C1.48 11.74, 1.22 11.38, 1.01 11.02 C0.79 10.65, 0.6 10.25, 0.45 9.86 C0.3 9.46, 0.19 9.04, 0.11 8.62 C0.04 8.2, 0 7.77, 0 7.34 C0 6.92, 0.04 6.49, 0.11 6.07 C0.19 5.65, 0.3 5.23, 0.45 4.83 C0.6 4.43, 0.79 4.04, 1.01 3.67 C1.22 3.3, 1.48 2.95, 1.76 2.62 C2.04 2.3, 2.35 1.99, 2.68 1.72 C3.01 1.44, 3.38 1.2, 3.75 0.98 C4.13 0.77, 4.53 0.59, 4.94 0.44 C5.35 0.3, 5.77 0.19, 6.2 0.11 C6.63 0.04, 7.07 0, 7.51 0 C7.94 0, 8.38 0.04, 8.81 0.11 C9.24 0.19, 9.66 0.3, 10.07 0.44 C10.48 0.59, 10.88 0.77, 11.26 0.98 C11.63 1.2, 12 1.44, 12.33 1.72 C12.66 1.99, 12.98 2.3, 13.25 2.62 C13.53 2.95, 13.79 3.3, 14 3.67 C14.22 4.04, 14.41 4.43, 14.56 4.83 C14.71 5.23, 14.82 5.65, 14.9 6.07 C14.97 6.49, 14.99 7.13, 15.01 7.34 C15.03 7.56, 15.03 7.13, 15.01 7.34" stroke="none" stroke-width="0" fill="#868e96"></path><path d="M15.01 7.34 C15.01 7.77, 14.97 8.2, 14.9 8.62 C14.82 9.04, 14.71 9.46, 14.56 9.86 C14.41 10.25, 14.22 10.65, 14 11.02 C13.79 11.38, 13.53 11.74, 13.25 12.06 C12.98 12.39, 12.66 12.7, 12.33 12.97 C12 13.24, 11.63 13.49, 11.26 13.7 C10.88 13.92, 10.48 14.1, 10.07 14.24 C9.66 14.39, 9.24 14.5, 8.81 14.58 C8.38 14.65, 7.94 14.69, 7.51 14.69 C7.07 14.69, 6.63 14.65, 6.2 14.58 C5.77 14.5, 5.35 14.39, 4.94 14.24 C4.53 14.1, 4.13 13.92, 3.75 13.7 C3.38 13.49, 3.01 13.24, 2.68 12.97 C2.35 12.7, 2.04 12.39, 1.76 12.06 C1.48 11.74, 1.22 11.38, 1.01 11.02 C0.79 10.65, 0.6 10.25, 0.45 9.86 C0.3 9.46, 0.19 9.04, 0.11 8.62 C0.04 8.2, 0 7.77, 0 7.34 C0 6.92, 0.04 6.49, 0.11 6.07 C0.19 5.65, 0.3 5.23, 0.45 4.83 C0.6 4.43, 0.79 4.04, 1.01 3.67 C1.22 3.3, 1.48 2.95, 1.76 2.62 C2.04 2.3, 2.35 1.99, 2.68 1.72 C3.01 1.44, 3.38 1.2, 3.75 0.98 C4.13 0.77, 4.53 0.59, 4.94 0.44 C5.35 0.3, 5.77 0.19, 6.2 0.11 C6.63 0.04, 7.07 0, 7.51 0 C7.94 0, 8.38 0.04, 8.81 0.11 C9.24 0.19, 9.66 0.3, 10.07 0.44 C10.48 0.59, 10.88 0.77, 11.26 0.98 C11.63 1.2, 12 1.44, 12.33 1.72 C12.66 1.99, 12.98 2.3, 13.25 2.62 C13.53 2.95, 13.79 3.3, 14 3.67 C14.22 4.04, 14.41 4.43, 14.56 4.83 C14.71 5.23, 14.82 5.65, 14.9 6.07 C14.97 6.49, 14.99 7.13, 15.01 7.34 C15.03 7.56, 15.03 7.13, 15.01 7.34" stroke="#1e1e1e" stroke-width="1" fill="none"></path></g><g stroke-linecap="round" transform="translate(278.0529926785712 12.153478624999991) rotate(0 7.505208333333343 7.343532986111114)"><path d="M15.01 7.34 C15.01 7.77, 14.97 8.2, 14.9 8.62 C14.82 9.04, 14.71 9.46, 14.56 9.86 C14.41 10.25, 14.22 10.65, 14 11.02 C13.79 11.38, 13.53 11.74, 13.25 12.06 C12.98 12.39, 12.66 12.7, 12.33 12.97 C12 13.24, 11.63 13.49, 11.26 13.7 C10.88 13.92, 10.48 14.1, 10.07 14.24 C9.66 14.39, 9.24 14.5, 8.81 14.58 C8.38 14.65, 7.94 14.69, 7.51 14.69 C7.07 14.69, 6.63 14.65, 6.2 14.58 C5.77 14.5, 5.35 14.39, 4.94 14.24 C4.53 14.1, 4.13 13.92, 3.75 13.7 C3.38 13.49, 3.01 13.24, 2.68 12.97 C2.35 12.7, 2.04 12.39, 1.76 12.06 C1.48 11.74, 1.22 11.38, 1.01 11.02 C0.79 10.65, 0.6 10.25, 0.45 9.86 C0.3 9.46, 0.19 9.04, 0.11 8.62 C0.04 8.2, 0 7.77, 0 7.34 C0 6.92, 0.04 6.49, 0.11 6.07 C0.19 5.65, 0.3 5.23, 0.45 4.83 C0.6 4.43, 0.79 4.04, 1.01 3.67 C1.22 3.3, 1.48 2.95, 1.76 2.62 C2.04 2.3, 2.35 1.99, 2.68 1.72 C3.01 1.44, 3.38 1.2, 3.75 0.98 C4.13 0.77, 4.53 0.59, 4.94 0.44 C5.35 0.3, 5.77 0.19, 6.2 0.11 C6.63 0.04, 7.07 0, 7.51 0 C7.94 0, 8.38 0.04, 8.81 0.11 C9.24 0.19, 9.66 0.3, 10.07 0.44 C10.48 0.59, 10.88 0.77, 11.26 0.98 C11.63 1.2, 12 1.44, 12.33 1.72 C12.66 1.99, 12.98 2.3, 13.25 2.62 C13.53 2.95, 13.79 3.3, 14 3.67 C14.22 4.04, 14.41 4.43, 14.56 4.83 C14.71 5.23, 14.82 5.65, 14.9 6.07 C14.97 6.49, 14.99 7.13, 15.01 7.34 C15.03 7.56, 15.03 7.13, 15.01 7.34" stroke="none" stroke-width="0" fill="#868e96"></path><path d="M15.01 7.34 C15.01 7.77, 14.97 8.2, 14.9 8.62 C14.82 9.04, 14.71 9.46, 14.56 9.86 C14.41 10.25, 14.22 10.65, 14 11.02 C13.79 11.38, 13.53 11.74, 13.25 12.06 C12.98 12.39, 12.66 12.7, 12.33 12.97 C12 13.24, 11.63 13.49, 11.26 13.7 C10.88 13.92, 10.48 14.1, 10.07 14.24 C9.66 14.39, 9.24 14.5, 8.81 14.58 C8.38 14.65, 7.94 14.69, 7.51 14.69 C7.07 14.69, 6.63 14.65, 6.2 14.58 C5.77 14.5, 5.35 14.39, 4.94 14.24 C4.53 14.1, 4.13 13.92, 3.75 13.7 C3.38 13.49, 3.01 13.24, 2.68 12.97 C2.35 12.7, 2.04 12.39, 1.76 12.06 C1.48 11.74, 1.22 11.38, 1.01 11.02 C0.79 10.65, 0.6 10.25, 0.45 9.86 C0.3 9.46, 0.19 9.04, 0.11 8.62 C0.04 8.2, 0 7.77, 0 7.34 C0 6.92, 0.04 6.49, 0.11 6.07 C0.19 5.65, 0.3 5.23, 0.45 4.83 C0.6 4.43, 0.79 4.04, 1.01 3.67 C1.22 3.3, 1.48 2.95, 1.76 2.62 C2.04 2.3, 2.35 1.99, 2.68 1.72 C3.01 1.44, 3.38 1.2, 3.75 0.98 C4.13 0.77, 4.53 0.59, 4.94 0.44 C5.35 0.3, 5.77 0.19, 6.2 0.11 C6.63 0.04, 7.07 0, 7.51 0 C7.94 0, 8.38 0.04, 8.81 0.11 C9.24 0.19, 9.66 0.3, 10.07 0.44 C10.48 0.59, 10.88 0.77, 11.26 0.98 C11.63 1.2, 12 1.44, 12.33 1.72 C12.66 1.99, 12.98 2.3, 13.25 2.62 C13.53 2.95, 13.79 3.3, 14 3.67 C14.22 4.04, 14.41 4.43, 14.56 4.83 C14.71 5.23, 14.82 5.65, 14.9 6.07 C14.97 6.49, 14.99 7.13, 15.01 7.34 C15.03 7.56, 15.03 7.13, 15.01 7.34" stroke="#1e1e1e" stroke-width="1" fill="none"></path></g><g stroke-linecap="round" transform="translate(348.84195040476175 12.153478624999991) rotate(0 7.505208333333314 7.343532986111114)"><path d="M15.01 7.34 C15.01 7.77, 14.97 8.2, 14.9 8.62 C14.82 9.04, 14.71 9.46, 14.56 9.86 C14.41 10.25, 14.22 10.65, 14 11.02 C13.79 11.38, 13.53 11.74, 13.25 12.06 C12.98 12.39, 12.66 12.7, 12.33 12.97 C12 13.24, 11.63 13.49, 11.26 13.7 C10.88 13.92, 10.48 14.1, 10.07 14.24 C9.66 14.39, 9.24 14.5, 8.81 14.58 C8.38 14.65, 7.94 14.69, 7.51 14.69 C7.07 14.69, 6.63 14.65, 6.2 14.58 C5.77 14.5, 5.35 14.39, 4.94 14.24 C4.53 14.1, 4.13 13.92, 3.75 13.7 C3.38 13.49, 3.01 13.24, 2.68 12.97 C2.35 12.7, 2.04 12.39, 1.76 12.06 C1.48 11.74, 1.22 11.38, 1.01 11.02 C0.79 10.65, 0.6 10.25, 0.45 9.86 C0.3 9.46, 0.19 9.04, 0.11 8.62 C0.04 8.2, 0 7.77, 0 7.34 C0 6.92, 0.04 6.49, 0.11 6.07 C0.19 5.65, 0.3 5.23, 0.45 4.83 C0.6 4.43, 0.79 4.04, 1.01 3.67 C1.22 3.3, 1.48 2.95, 1.76 2.62 C2.04 2.3, 2.35 1.99, 2.68 1.72 C3.01 1.44, 3.38 1.2, 3.75 0.98 C4.13 0.77, 4.53 0.59, 4.94 0.44 C5.35 0.3, 5.77 0.19, 6.2 0.11 C6.63 0.04, 7.07 0, 7.51 0 C7.94 0, 8.38 0.04, 8.81 0.11 C9.24 0.19, 9.66 0.3, 10.07 0.44 C10.48 0.59, 10.88 0.77, 11.26 0.98 C11.63 1.2, 12 1.44, 12.33 1.72 C12.66 1.99, 12.98 2.3, 13.25 2.62 C13.53 2.95, 13.79 3.3, 14 3.67 C14.22 4.04, 14.41 4.43, 14.56 4.83 C14.71 5.23, 14.82 5.65, 14.9 6.07 C14.97 6.49, 14.99 7.13, 15.01 7.34 C15.03 7.56, 15.03 7.13, 15.01 7.34" stroke="none" stroke-width="0" fill="#868e96"></path><path d="M15.01 7.34 C15.01 7.77, 14.97 8.2, 14.9 8.62 C14.82 9.04, 14.71 9.46, 14.56 9.86 C14.41 10.25, 14.22 10.65, 14 11.02 C13.79 11.38, 13.53 11.74, 13.25 12.06 C12.98 12.39, 12.66 12.7, 12.33 12.97 C12 13.24, 11.63 13.49, 11.26 13.7 C10.88 13.92, 10.48 14.1, 10.07 14.24 C9.66 14.39, 9.24 14.5, 8.81 14.58 C8.38 14.65, 7.94 14.69, 7.51 14.69 C7.07 14.69, 6.63 14.65, 6.2 14.58 C5.77 14.5, 5.35 14.39, 4.94 14.24 C4.53 14.1, 4.13 13.92, 3.75 13.7 C3.38 13.49, 3.01 13.24, 2.68 12.97 C2.35 12.7, 2.04 12.39, 1.76 12.06 C1.48 11.74, 1.22 11.38, 1.01 11.02 C0.79 10.65, 0.6 10.25, 0.45 9.86 C0.3 9.46, 0.19 9.04, 0.11 8.62 C0.04 8.2, 0 7.77, 0 7.34 C0 6.92, 0.04 6.49, 0.11 6.07 C0.19 5.65, 0.3 5.23, 0.45 4.83 C0.6 4.43, 0.79 4.04, 1.01 3.67 C1.22 3.3, 1.48 2.95, 1.76 2.62 C2.04 2.3, 2.35 1.99, 2.68 1.72 C3.01 1.44, 3.38 1.2, 3.75 0.98 C4.13 0.77, 4.53 0.59, 4.94 0.44 C5.35 0.3, 5.77 0.19, 6.2 0.11 C6.63 0.04, 7.07 0, 7.51 0 C7.94 0, 8.38 0.04, 8.81 0.11 C9.24 0.19, 9.66 0.3, 10.07 0.44 C10.48 0.59, 10.88 0.77, 11.26 0.98 C11.63 1.2, 12 1.44, 12.33 1.72 C12.66 1.99, 12.98 2.3, 13.25 2.62 C13.53 2.95, 13.79 3.3, 14 3.67 C14.22 4.04, 14.41 4.43, 14.56 4.83 C14.71 5.23, 14.82 5.65, 14.9 6.07 C14.97 6.49, 14.99 7.13, 15.01 7.34 C15.03 7.56, 15.03 7.13, 15.01 7.34" stroke="#1e1e1e" stroke-width="1" fill="none"></path></g><g stroke-linecap="round" transform="translate(419.6309081309522 12.153478624999991) rotate(0 7.505208333333314 7.343532986111114)"><path d="M15.01 7.34 C15.01 7.77, 14.97 8.2, 14.9 8.62 C14.82 9.04, 14.71 9.46, 14.56 9.86 C14.41 10.25, 14.22 10.65, 14 11.02 C13.79 11.38, 13.53 11.74, 13.25 12.06 C12.98 12.39, 12.66 12.7, 12.33 12.97 C12 13.24, 11.63 13.49, 11.26 13.7 C10.88 13.92, 10.48 14.1, 10.07 14.24 C9.66 14.39, 9.24 14.5, 8.81 14.58 C8.38 14.65, 7.94 14.69, 7.51 14.69 C7.07 14.69, 6.63 14.65, 6.2 14.58 C5.77 14.5, 5.35 14.39, 4.94 14.24 C4.53 14.1, 4.13 13.92, 3.75 13.7 C3.38 13.49, 3.01 13.24, 2.68 12.97 C2.35 12.7, 2.04 12.39, 1.76 12.06 C1.48 11.74, 1.22 11.38, 1.01 11.02 C0.79 10.65, 0.6 10.25, 0.45 9.86 C0.3 9.46, 0.19 9.04, 0.11 8.62 C0.04 8.2, 0 7.77, 0 7.34 C0 6.92, 0.04 6.49, 0.11 6.07 C0.19 5.65, 0.3 5.23, 0.45 4.83 C0.6 4.43, 0.79 4.04, 1.01 3.67 C1.22 3.3, 1.48 2.95, 1.76 2.62 C2.04 2.3, 2.35 1.99, 2.68 1.72 C3.01 1.44, 3.38 1.2, 3.75 0.98 C4.13 0.77, 4.53 0.59, 4.94 0.44 C5.35 0.3, 5.77 0.19, 6.2 0.11 C6.63 0.04, 7.07 0, 7.51 0 C7.94 0, 8.38 0.04, 8.81 0.11 C9.24 0.19, 9.66 0.3, 10.07 0.44 C10.48 0.59, 10.88 0.77, 11.26 0.98 C11.63 1.2, 12 1.44, 12.33 1.72 C12.66 1.99, 12.98 2.3, 13.25 2.62 C13.53 2.95, 13.79 3.3, 14 3.67 C14.22 4.04, 14.41 4.43, 14.56 4.83 C14.71 5.23, 14.82 5.65, 14.9 6.07 C14.97 6.49, 14.99 7.13, 15.01 7.34 C15.03 7.56, 15.03 7.13, 15.01 7.34" stroke="none" stroke-width="0" fill="#868e96"></path><path d="M15.01 7.34 C15.01 7.77, 14.97 8.2, 14.9 8.62 C14.82 9.04, 14.71 9.46, 14.56 9.86 C14.41 10.25, 14.22 10.65, 14 11.02 C13.79 11.38, 13.53 11.74, 13.25 12.06 C12.98 12.39, 12.66 12.7, 12.33 12.97 C12 13.24, 11.63 13.49, 11.26 13.7 C10.88 13.92, 10.48 14.1, 10.07 14.24 C9.66 14.39, 9.24 14.5, 8.81 14.58 C8.38 14.65, 7.94 14.69, 7.51 14.69 C7.07 14.69, 6.63 14.65, 6.2 14.58 C5.77 14.5, 5.35 14.39, 4.94 14.24 C4.53 14.1, 4.13 13.92, 3.75 13.7 C3.38 13.49, 3.01 13.24, 2.68 12.97 C2.35 12.7, 2.04 12.39, 1.76 12.06 C1.48 11.74, 1.22 11.38, 1.01 11.02 C0.79 10.65, 0.6 10.25, 0.45 9.86 C0.3 9.46, 0.19 9.04, 0.11 8.62 C0.04 8.2, 0 7.77, 0 7.34 C0 6.92, 0.04 6.49, 0.11 6.07 C0.19 5.65, 0.3 5.23, 0.45 4.83 C0.6 4.43, 0.79 4.04, 1.01 3.67 C1.22 3.3, 1.48 2.95, 1.76 2.62 C2.04 2.3, 2.35 1.99, 2.68 1.72 C3.01 1.44, 3.38 1.2, 3.75 0.98 C4.13 0.77, 4.53 0.59, 4.94 0.44 C5.35 0.3, 5.77 0.19, 6.2 0.11 C6.63 0.04, 7.07 0, 7.51 0 C7.94 0, 8.38 0.04, 8.81 0.11 C9.24 0.19, 9.66 0.3, 10.07 0.44 C10.48 0.59, 10.88 0.77, 11.26 0.98 C11.63 1.2, 12 1.44, 12.33 1.72 C12.66 1.99, 12.98 2.3, 13.25 2.62 C13.53 2.95, 13.79 3.3, 14 3.67 C14.22 4.04, 14.41 4.43, 14.56 4.83 C14.71 5.23, 14.82 5.65, 14.9 6.07 C14.97 6.49, 14.99 7.13, 15.01 7.34 C15.03 7.56, 15.03 7.13, 15.01 7.34" stroke="#1e1e1e" stroke-width="1" fill="none"></path></g><g stroke-linecap="round"><g transform="translate(214.5134663999998 71.57221391666687) rotate(0 106.48991872357826 -0.9866015480147325)"><path d="M0.46 -0.44 C35.81 -0.81, 177.38 -1.62, 212.52 -1.52" stroke="#1e1e1e" stroke-width="1.5" fill="none" stroke-dasharray="8 9"></path></g></g><mask></mask><g stroke-linecap="round" transform="translate(207.26403495238065 63.74861016666679) rotate(0 7.505208333333343 7.343532986111114)"><path d="M15.01 7.34 C15.01 7.77, 14.97 8.2, 14.9 8.62 C14.82 9.04, 14.71 9.46, 14.56 9.86 C14.41 10.25, 14.22 10.65, 14 11.02 C13.79 11.38, 13.53 11.74, 13.25 12.06 C12.98 12.39, 12.66 12.7, 12.33 12.97 C12 13.24, 11.63 13.49, 11.26 13.7 C10.88 13.92, 10.48 14.1, 10.07 14.24 C9.66 14.39, 9.24 14.5, 8.81 14.58 C8.38 14.65, 7.94 14.69, 7.51 14.69 C7.07 14.69, 6.63 14.65, 6.2 14.58 C5.77 14.5, 5.35 14.39, 4.94 14.24 C4.53 14.1, 4.13 13.92, 3.75 13.7 C3.38 13.49, 3.01 13.24, 2.68 12.97 C2.35 12.7, 2.04 12.39, 1.76 12.06 C1.48 11.74, 1.22 11.38, 1.01 11.02 C0.79 10.65, 0.6 10.25, 0.45 9.86 C0.3 9.46, 0.19 9.04, 0.11 8.62 C0.04 8.2, 0 7.77, 0 7.34 C0 6.92, 0.04 6.49, 0.11 6.07 C0.19 5.65, 0.3 5.23, 0.45 4.83 C0.6 4.43, 0.79 4.04, 1.01 3.67 C1.22 3.3, 1.48 2.95, 1.76 2.62 C2.04 2.3, 2.35 1.99, 2.68 1.72 C3.01 1.44, 3.38 1.2, 3.75 0.98 C4.13 0.77, 4.53 0.59, 4.94 0.44 C5.35 0.3, 5.77 0.19, 6.2 0.11 C6.63 0.04, 7.07 0, 7.51 0 C7.94 0, 8.38 0.04, 8.81 0.11 C9.24 0.19, 9.66 0.3, 10.07 0.44 C10.48 0.59, 10.88 0.77, 11.26 0.98 C11.63 1.2, 12 1.44, 12.33 1.72 C12.66 1.99, 12.98 2.3, 13.25 2.62 C13.53 2.95, 13.79 3.3, 14 3.67 C14.22 4.04, 14.41 4.43, 14.56 4.83 C14.71 5.23, 14.82 5.65, 14.9 6.07 C14.97 6.49, 14.99 7.13, 15.01 7.34 C15.03 7.56, 15.03 7.13, 15.01 7.34" stroke="none" stroke-width="0" fill="#228be6"></path><path d="M15.01 7.34 C15.01 7.77, 14.97 8.2, 14.9 8.62 C14.82 9.04, 14.71 9.46, 14.56 9.86 C14.41 10.25, 14.22 10.65, 14 11.02 C13.79 11.38, 13.53 11.74, 13.25 12.06 C12.98 12.39, 12.66 12.7, 12.33 12.97 C12 13.24, 11.63 13.49, 11.26 13.7 C10.88 13.92, 10.48 14.1, 10.07 14.24 C9.66 14.39, 9.24 14.5, 8.81 14.58 C8.38 14.65, 7.94 14.69, 7.51 14.69 C7.07 14.69, 6.63 14.65, 6.2 14.58 C5.77 14.5, 5.35 14.39, 4.94 14.24 C4.53 14.1, 4.13 13.92, 3.75 13.7 C3.38 13.49, 3.01 13.24, 2.68 12.97 C2.35 12.7, 2.04 12.39, 1.76 12.06 C1.48 11.74, 1.22 11.38, 1.01 11.02 C0.79 10.65, 0.6 10.25, 0.45 9.86 C0.3 9.46, 0.19 9.04, 0.11 8.62 C0.04 8.2, 0 7.77, 0 7.34 C0 6.92, 0.04 6.49, 0.11 6.07 C0.19 5.65, 0.3 5.23, 0.45 4.83 C0.6 4.43, 0.79 4.04, 1.01 3.67 C1.22 3.3, 1.48 2.95, 1.76 2.62 C2.04 2.3, 2.35 1.99, 2.68 1.72 C3.01 1.44, 3.38 1.2, 3.75 0.98 C4.13 0.77, 4.53 0.59, 4.94 0.44 C5.35 0.3, 5.77 0.19, 6.2 0.11 C6.63 0.04, 7.07 0, 7.51 0 C7.94 0, 8.38 0.04, 8.81 0.11 C9.24 0.19, 9.66 0.3, 10.07 0.44 C10.48 0.59, 10.88 0.77, 11.26 0.98 C11.63 1.2, 12 1.44, 12.33 1.72 C12.66 1.99, 12.98 2.3, 13.25 2.62 C13.53 2.95, 13.79 3.3, 14 3.67 C14.22 4.04, 14.41 4.43, 14.56 4.83 C14.71 5.23, 14.82 5.65, 14.9 6.07 C14.97 6.49, 14.99 7.13, 15.01 7.34 C15.03 7.56, 15.03 7.13, 15.01 7.34" stroke="#1e1e1e" stroke-width="1" fill="none"></path></g><g stroke-linecap="round" transform="translate(419.6309081309522 63.74861016666679) rotate(0 7.505208333333314 7.343532986111114)"><path d="M15.01 7.34 C15.01 7.77, 14.97 8.2, 14.9 8.62 C14.82 9.04, 14.71 9.46, 14.56 9.86 C14.41 10.25, 14.22 10.65, 14 11.02 C13.79 11.38, 13.53 11.74, 13.25 12.06 C12.98 12.39, 12.66 12.7, 12.33 12.97 C12 13.24, 11.63 13.49, 11.26 13.7 C10.88 13.92, 10.48 14.1, 10.07 14.24 C9.66 14.39, 9.24 14.5, 8.81 14.58 C8.38 14.65, 7.94 14.69, 7.51 14.69 C7.07 14.69, 6.63 14.65, 6.2 14.58 C5.77 14.5, 5.35 14.39, 4.94 14.24 C4.53 14.1, 4.13 13.92, 3.75 13.7 C3.38 13.49, 3.01 13.24, 2.68 12.97 C2.35 12.7, 2.04 12.39, 1.76 12.06 C1.48 11.74, 1.22 11.38, 1.01 11.02 C0.79 10.65, 0.6 10.25, 0.45 9.86 C0.3 9.46, 0.19 9.04, 0.11 8.62 C0.04 8.2, 0 7.77, 0 7.34 C0 6.92, 0.04 6.49, 0.11 6.07 C0.19 5.65, 0.3 5.23, 0.45 4.83 C0.6 4.43, 0.79 4.04, 1.01 3.67 C1.22 3.3, 1.48 2.95, 1.76 2.62 C2.04 2.3, 2.35 1.99, 2.68 1.72 C3.01 1.44, 3.38 1.2, 3.75 0.98 C4.13 0.77, 4.53 0.59, 4.94 0.44 C5.35 0.3, 5.77 0.19, 6.2 0.11 C6.63 0.04, 7.07 0, 7.51 0 C7.94 0, 8.38 0.04, 8.81 0.11 C9.24 0.19, 9.66 0.3, 10.07 0.44 C10.48 0.59, 10.88 0.77, 11.26 0.98 C11.63 1.2, 12 1.44, 12.33 1.72 C12.66 1.99, 12.98 2.3, 13.25 2.62 C13.53 2.95, 13.79 3.3, 14 3.67 C14.22 4.04, 14.41 4.43, 14.56 4.83 C14.71 5.23, 14.82 5.65, 14.9 6.07 C14.97 6.49, 14.99 7.13, 15.01 7.34 C15.03 7.56, 15.03 7.13, 15.01 7.34" stroke="none" stroke-width="0" fill="#228be6"></path><path d="M15.01 7.34 C15.01 7.77, 14.97 8.2, 14.9 8.62 C14.82 9.04, 14.71 9.46, 14.56 9.86 C14.41 10.25, 14.22 10.65, 14 11.02 C13.79 11.38, 13.53 11.74, 13.25 12.06 C12.98 12.39, 12.66 12.7, 12.33 12.97 C12 13.24, 11.63 13.49, 11.26 13.7 C10.88 13.92, 10.48 14.1, 10.07 14.24 C9.66 14.39, 9.24 14.5, 8.81 14.58 C8.38 14.65, 7.94 14.69, 7.51 14.69 C7.07 14.69, 6.63 14.65, 6.2 14.58 C5.77 14.5, 5.35 14.39, 4.94 14.24 C4.53 14.1, 4.13 13.92, 3.75 13.7 C3.38 13.49, 3.01 13.24, 2.68 12.97 C2.35 12.7, 2.04 12.39, 1.76 12.06 C1.48 11.74, 1.22 11.38, 1.01 11.02 C0.79 10.65, 0.6 10.25, 0.45 9.86 C0.3 9.46, 0.19 9.04, 0.11 8.62 C0.04 8.2, 0 7.77, 0 7.34 C0 6.92, 0.04 6.49, 0.11 6.07 C0.19 5.65, 0.3 5.23, 0.45 4.83 C0.6 4.43, 0.79 4.04, 1.01 3.67 C1.22 3.3, 1.48 2.95, 1.76 2.62 C2.04 2.3, 2.35 1.99, 2.68 1.72 C3.01 1.44, 3.38 1.2, 3.75 0.98 C4.13 0.77, 4.53 0.59, 4.94 0.44 C5.35 0.3, 5.77 0.19, 6.2 0.11 C6.63 0.04, 7.07 0, 7.51 0 C7.94 0, 8.38 0.04, 8.81 0.11 C9.24 0.19, 9.66 0.3, 10.07 0.44 C10.48 0.59, 10.88 0.77, 11.26 0.98 C11.63 1.2, 12 1.44, 12.33 1.72 C12.66 1.99, 12.98 2.3, 13.25 2.62 C13.53 2.95, 13.79 3.3, 14 3.67 C14.22 4.04, 14.41 4.43, 14.56 4.83 C14.71 5.23, 14.82 5.65, 14.9 6.07 C14.97 6.49, 14.99 7.13, 15.01 7.34 C15.03 7.56, 15.03 7.13, 15.01 7.34" stroke="#1e1e1e" stroke-width="1" fill="none"></path></g><g stroke-linecap="round" transform="translate(419.63090820000036 114.24418362500015) rotate(0 7.505208333333314 7.343532986111114)"><path d="M15.01 7.34 C15.01 7.77, 14.97 8.2, 14.9 8.62 C14.82 9.04, 14.71 9.46, 14.56 9.86 C14.41 10.25, 14.22 10.65, 14 11.02 C13.79 11.38, 13.53 11.74, 13.25 12.06 C12.98 12.39, 12.66 12.7, 12.33 12.97 C12 13.24, 11.63 13.49, 11.26 13.7 C10.88 13.92, 10.48 14.1, 10.07 14.24 C9.66 14.39, 9.24 14.5, 8.81 14.58 C8.38 14.65, 7.94 14.69, 7.51 14.69 C7.07 14.69, 6.63 14.65, 6.2 14.58 C5.77 14.5, 5.35 14.39, 4.94 14.24 C4.53 14.1, 4.13 13.92, 3.75 13.7 C3.38 13.49, 3.01 13.24, 2.68 12.97 C2.35 12.7, 2.04 12.39, 1.76 12.06 C1.48 11.74, 1.22 11.38, 1.01 11.02 C0.79 10.65, 0.6 10.25, 0.45 9.86 C0.3 9.46, 0.19 9.04, 0.11 8.62 C0.04 8.2, 0 7.77, 0 7.34 C0 6.92, 0.04 6.49, 0.11 6.07 C0.19 5.65, 0.3 5.23, 0.45 4.83 C0.6 4.43, 0.79 4.04, 1.01 3.67 C1.22 3.3, 1.48 2.95, 1.76 2.62 C2.04 2.3, 2.35 1.99, 2.68 1.72 C3.01 1.44, 3.38 1.2, 3.75 0.98 C4.13 0.77, 4.53 0.59, 4.94 0.44 C5.35 0.3, 5.77 0.19, 6.2 0.11 C6.63 0.04, 7.07 0, 7.51 0 C7.94 0, 8.38 0.04, 8.81 0.11 C9.24 0.19, 9.66 0.3, 10.07 0.44 C10.48 0.59, 10.88 0.77, 11.26 0.98 C11.63 1.2, 12 1.44, 12.33 1.72 C12.66 1.99, 12.98 2.3, 13.25 2.62 C13.53 2.95, 13.79 3.3, 14 3.67 C14.22 4.04, 14.41 4.43, 14.56 4.83 C14.71 5.23, 14.82 5.65, 14.9 6.07 C14.97 6.49, 14.99 7.13, 15.01 7.34 C15.03 7.56, 15.03 7.13, 15.01 7.34" stroke="none" stroke-width="0" fill="#40c057"></path><path d="M15.01 7.34 C15.01 7.77, 14.97 8.2, 14.9 8.62 C14.82 9.04, 14.71 9.46, 14.56 9.86 C14.41 10.25, 14.22 10.65, 14 11.02 C13.79 11.38, 13.53 11.74, 13.25 12.06 C12.98 12.39, 12.66 12.7, 12.33 12.97 C12 13.24, 11.63 13.49, 11.26 13.7 C10.88 13.92, 10.48 14.1, 10.07 14.24 C9.66 14.39, 9.24 14.5, 8.81 14.58 C8.38 14.65, 7.94 14.69, 7.51 14.69 C7.07 14.69, 6.63 14.65, 6.2 14.58 C5.77 14.5, 5.35 14.39, 4.94 14.24 C4.53 14.1, 4.13 13.92, 3.75 13.7 C3.38 13.49, 3.01 13.24, 2.68 12.97 C2.35 12.7, 2.04 12.39, 1.76 12.06 C1.48 11.74, 1.22 11.38, 1.01 11.02 C0.79 10.65, 0.6 10.25, 0.45 9.86 C0.3 9.46, 0.19 9.04, 0.11 8.62 C0.04 8.2, 0 7.77, 0 7.34 C0 6.92, 0.04 6.49, 0.11 6.07 C0.19 5.65, 0.3 5.23, 0.45 4.83 C0.6 4.43, 0.79 4.04, 1.01 3.67 C1.22 3.3, 1.48 2.95, 1.76 2.62 C2.04 2.3, 2.35 1.99, 2.68 1.72 C3.01 1.44, 3.38 1.2, 3.75 0.98 C4.13 0.77, 4.53 0.59, 4.94 0.44 C5.35 0.3, 5.77 0.19, 6.2 0.11 C6.63 0.04, 7.07 0, 7.51 0 C7.94 0, 8.38 0.04, 8.81 0.11 C9.24 0.19, 9.66 0.3, 10.07 0.44 C10.48 0.59, 10.88 0.77, 11.26 0.98 C11.63 1.2, 12 1.44, 12.33 1.72 C12.66 1.99, 12.98 2.3, 13.25 2.62 C13.53 2.95, 13.79 3.3, 14 3.67 C14.22 4.04, 14.41 4.43, 14.56 4.83 C14.71 5.23, 14.82 5.65, 14.9 6.07 C14.97 6.49, 14.99 7.13, 15.01 7.34 C15.03 7.56, 15.03 7.13, 15.01 7.34" stroke="#1e1e1e" stroke-width="1" fill="none"></path></g><g stroke-linecap="round" transform="translate(561.2088235833329 63.74861016666685) rotate(0 7.505208333333314 7.343532986111114)"><path d="M15.01 7.34 C15.01 7.77, 14.97 8.2, 14.9 8.62 C14.82 9.04, 14.71 9.46, 14.56 9.86 C14.41 10.25, 14.22 10.65, 14 11.02 C13.79 11.38, 13.53 11.74, 13.25 12.06 C12.98 12.39, 12.66 12.7, 12.33 12.97 C12 13.24, 11.63 13.49, 11.26 13.7 C10.88 13.92, 10.48 14.1, 10.07 14.24 C9.66 14.39, 9.24 14.5, 8.81 14.58 C8.38 14.65, 7.94 14.69, 7.51 14.69 C7.07 14.69, 6.63 14.65, 6.2 14.58 C5.77 14.5, 5.35 14.39, 4.94 14.24 C4.53 14.1, 4.13 13.92, 3.75 13.7 C3.38 13.49, 3.01 13.24, 2.68 12.97 C2.35 12.7, 2.04 12.39, 1.76 12.06 C1.48 11.74, 1.22 11.38, 1.01 11.02 C0.79 10.65, 0.6 10.25, 0.45 9.86 C0.3 9.46, 0.19 9.04, 0.11 8.62 C0.04 8.2, 0 7.77, 0 7.34 C0 6.92, 0.04 6.49, 0.11 6.07 C0.19 5.65, 0.3 5.23, 0.45 4.83 C0.6 4.43, 0.79 4.04, 1.01 3.67 C1.22 3.3, 1.48 2.95, 1.76 2.62 C2.04 2.3, 2.35 1.99, 2.68 1.72 C3.01 1.44, 3.38 1.2, 3.75 0.98 C4.13 0.77, 4.53 0.59, 4.94 0.44 C5.35 0.3, 5.77 0.19, 6.2 0.11 C6.63 0.04, 7.07 0, 7.51 0 C7.94 0, 8.38 0.04, 8.81 0.11 C9.24 0.19, 9.66 0.3, 10.07 0.44 C10.48 0.59, 10.88 0.77, 11.26 0.98 C11.63 1.2, 12 1.44, 12.33 1.72 C12.66 1.99, 12.98 2.3, 13.25 2.62 C13.53 2.95, 13.79 3.3, 14 3.67 C14.22 4.04, 14.41 4.43, 14.56 4.83 C14.71 5.23, 14.82 5.65, 14.9 6.07 C14.97 6.49, 14.99 7.13, 15.01 7.34 C15.03 7.56, 15.03 7.13, 15.01 7.34" stroke="none" stroke-width="0" fill="#228be6"></path><path d="M15.01 7.34 C15.01 7.77, 14.97 8.2, 14.9 8.62 C14.82 9.04, 14.71 9.46, 14.56 9.86 C14.41 10.25, 14.22 10.65, 14 11.02 C13.79 11.38, 13.53 11.74, 13.25 12.06 C12.98 12.39, 12.66 12.7, 12.33 12.97 C12 13.24, 11.63 13.49, 11.26 13.7 C10.88 13.92, 10.48 14.1, 10.07 14.24 C9.66 14.39, 9.24 14.5, 8.81 14.58 C8.38 14.65, 7.94 14.69, 7.51 14.69 C7.07 14.69, 6.63 14.65, 6.2 14.58 C5.77 14.5, 5.35 14.39, 4.94 14.24 C4.53 14.1, 4.13 13.92, 3.75 13.7 C3.38 13.49, 3.01 13.24, 2.68 12.97 C2.35 12.7, 2.04 12.39, 1.76 12.06 C1.48 11.74, 1.22 11.38, 1.01 11.02 C0.79 10.65, 0.6 10.25, 0.45 9.86 C0.3 9.46, 0.19 9.04, 0.11 8.62 C0.04 8.2, 0 7.77, 0 7.34 C0 6.92, 0.04 6.49, 0.11 6.07 C0.19 5.65, 0.3 5.23, 0.45 4.83 C0.6 4.43, 0.79 4.04, 1.01 3.67 C1.22 3.3, 1.48 2.95, 1.76 2.62 C2.04 2.3, 2.35 1.99, 2.68 1.72 C3.01 1.44, 3.38 1.2, 3.75 0.98 C4.13 0.77, 4.53 0.59, 4.94 0.44 C5.35 0.3, 5.77 0.19, 6.2 0.11 C6.63 0.04, 7.07 0, 7.51 0 C7.94 0, 8.38 0.04, 8.81 0.11 C9.24 0.19, 9.66 0.3, 10.07 0.44 C10.48 0.59, 10.88 0.77, 11.26 0.98 C11.63 1.2, 12 1.44, 12.33 1.72 C12.66 1.99, 12.98 2.3, 13.25 2.62 C13.53 2.95, 13.79 3.3, 14 3.67 C14.22 4.04, 14.41 4.43, 14.56 4.83 C14.71 5.23, 14.82 5.65, 14.9 6.07 C14.97 6.49, 14.99 7.13, 15.01 7.34 C15.03 7.56, 15.03 7.13, 15.01 7.34" stroke="#1e1e1e" stroke-width="1" fill="none"></path></g><g stroke-linecap="round" transform="translate(490.41986585714255 12.153478624999991) rotate(0 7.505208333333314 7.343532986111114)"><path d="M15.01 7.34 C15.01 7.77, 14.97 8.2, 14.9 8.62 C14.82 9.04, 14.71 9.46, 14.56 9.86 C14.41 10.25, 14.22 10.65, 14 11.02 C13.79 11.38, 13.53 11.74, 13.25 12.06 C12.98 12.39, 12.66 12.7, 12.33 12.97 C12 13.24, 11.63 13.49, 11.26 13.7 C10.88 13.92, 10.48 14.1, 10.07 14.24 C9.66 14.39, 9.24 14.5, 8.81 14.58 C8.38 14.65, 7.94 14.69, 7.51 14.69 C7.07 14.69, 6.63 14.65, 6.2 14.58 C5.77 14.5, 5.35 14.39, 4.94 14.24 C4.53 14.1, 4.13 13.92, 3.75 13.7 C3.38 13.49, 3.01 13.24, 2.68 12.97 C2.35 12.7, 2.04 12.39, 1.76 12.06 C1.48 11.74, 1.22 11.38, 1.01 11.02 C0.79 10.65, 0.6 10.25, 0.45 9.86 C0.3 9.46, 0.19 9.04, 0.11 8.62 C0.04 8.2, 0 7.77, 0 7.34 C0 6.92, 0.04 6.49, 0.11 6.07 C0.19 5.65, 0.3 5.23, 0.45 4.83 C0.6 4.43, 0.79 4.04, 1.01 3.67 C1.22 3.3, 1.48 2.95, 1.76 2.62 C2.04 2.3, 2.35 1.99, 2.68 1.72 C3.01 1.44, 3.38 1.2, 3.75 0.98 C4.13 0.77, 4.53 0.59, 4.94 0.44 C5.35 0.3, 5.77 0.19, 6.2 0.11 C6.63 0.04, 7.07 0, 7.51 0 C7.94 0, 8.38 0.04, 8.81 0.11 C9.24 0.19, 9.66 0.3, 10.07 0.44 C10.48 0.59, 10.88 0.77, 11.26 0.98 C11.63 1.2, 12 1.44, 12.33 1.72 C12.66 1.99, 12.98 2.3, 13.25 2.62 C13.53 2.95, 13.79 3.3, 14 3.67 C14.22 4.04, 14.41 4.43, 14.56 4.83 C14.71 5.23, 14.82 5.65, 14.9 6.07 C14.97 6.49, 14.99 7.13, 15.01 7.34 C15.03 7.56, 15.03 7.13, 15.01 7.34" stroke="none" stroke-width="0" fill="#868e96"></path><path d="M15.01 7.34 C15.01 7.77, 14.97 8.2, 14.9 8.62 C14.82 9.04, 14.71 9.46, 14.56 9.86 C14.41 10.25, 14.22 10.65, 14 11.02 C13.79 11.38, 13.53 11.74, 13.25 12.06 C12.98 12.39, 12.66 12.7, 12.33 12.97 C12 13.24, 11.63 13.49, 11.26 13.7 C10.88 13.92, 10.48 14.1, 10.07 14.24 C9.66 14.39, 9.24 14.5, 8.81 14.58 C8.38 14.65, 7.94 14.69, 7.51 14.69 C7.07 14.69, 6.63 14.65, 6.2 14.58 C5.77 14.5, 5.35 14.39, 4.94 14.24 C4.53 14.1, 4.13 13.92, 3.75 13.7 C3.38 13.49, 3.01 13.24, 2.68 12.97 C2.35 12.7, 2.04 12.39, 1.76 12.06 C1.48 11.74, 1.22 11.38, 1.01 11.02 C0.79 10.65, 0.6 10.25, 0.45 9.86 C0.3 9.46, 0.19 9.04, 0.11 8.62 C0.04 8.2, 0 7.77, 0 7.34 C0 6.92, 0.04 6.49, 0.11 6.07 C0.19 5.65, 0.3 5.23, 0.45 4.83 C0.6 4.43, 0.79 4.04, 1.01 3.67 C1.22 3.3, 1.48 2.95, 1.76 2.62 C2.04 2.3, 2.35 1.99, 2.68 1.72 C3.01 1.44, 3.38 1.2, 3.75 0.98 C4.13 0.77, 4.53 0.59, 4.94 0.44 C5.35 0.3, 5.77 0.19, 6.2 0.11 C6.63 0.04, 7.07 0, 7.51 0 C7.94 0, 8.38 0.04, 8.81 0.11 C9.24 0.19, 9.66 0.3, 10.07 0.44 C10.48 0.59, 10.88 0.77, 11.26 0.98 C11.63 1.2, 12 1.44, 12.33 1.72 C12.66 1.99, 12.98 2.3, 13.25 2.62 C13.53 2.95, 13.79 3.3, 14 3.67 C14.22 4.04, 14.41 4.43, 14.56 4.83 C14.71 5.23, 14.82 5.65, 14.9 6.07 C14.97 6.49, 14.99 7.13, 15.01 7.34 C15.03 7.56, 15.03 7.13, 15.01 7.34" stroke="#1e1e1e" stroke-width="1" fill="none"></path></g><g stroke-linecap="round" transform="translate(561.208823583333 12.153478624999991) rotate(0 7.505208333333314 7.343532986111114)"><path d="M15.01 7.34 C15.01 7.77, 14.97 8.2, 14.9 8.62 C14.82 9.04, 14.71 9.46, 14.56 9.86 C14.41 10.25, 14.22 10.65, 14 11.02 C13.79 11.38, 13.53 11.74, 13.25 12.06 C12.98 12.39, 12.66 12.7, 12.33 12.97 C12 13.24, 11.63 13.49, 11.26 13.7 C10.88 13.92, 10.48 14.1, 10.07 14.24 C9.66 14.39, 9.24 14.5, 8.81 14.58 C8.38 14.65, 7.94 14.69, 7.51 14.69 C7.07 14.69, 6.63 14.65, 6.2 14.58 C5.77 14.5, 5.35 14.39, 4.94 14.24 C4.53 14.1, 4.13 13.92, 3.75 13.7 C3.38 13.49, 3.01 13.24, 2.68 12.97 C2.35 12.7, 2.04 12.39, 1.76 12.06 C1.48 11.74, 1.22 11.38, 1.01 11.02 C0.79 10.65, 0.6 10.25, 0.45 9.86 C0.3 9.46, 0.19 9.04, 0.11 8.62 C0.04 8.2, 0 7.77, 0 7.34 C0 6.92, 0.04 6.49, 0.11 6.07 C0.19 5.65, 0.3 5.23, 0.45 4.83 C0.6 4.43, 0.79 4.04, 1.01 3.67 C1.22 3.3, 1.48 2.95, 1.76 2.62 C2.04 2.3, 2.35 1.99, 2.68 1.72 C3.01 1.44, 3.38 1.2, 3.75 0.98 C4.13 0.77, 4.53 0.59, 4.94 0.44 C5.35 0.3, 5.77 0.19, 6.2 0.11 C6.63 0.04, 7.07 0, 7.51 0 C7.94 0, 8.38 0.04, 8.81 0.11 C9.24 0.19, 9.66 0.3, 10.07 0.44 C10.48 0.59, 10.88 0.77, 11.26 0.98 C11.63 1.2, 12 1.44, 12.33 1.72 C12.66 1.99, 12.98 2.3, 13.25 2.62 C13.53 2.95, 13.79 3.3, 14 3.67 C14.22 4.04, 14.41 4.43, 14.56 4.83 C14.71 5.23, 14.82 5.65, 14.9 6.07 C14.97 6.49, 14.99 7.13, 15.01 7.34 C15.03 7.56, 15.03 7.13, 15.01 7.34" stroke="none" stroke-width="0" fill="#868e96"></path><path d="M15.01 7.34 C15.01 7.77, 14.97 8.2, 14.9 8.62 C14.82 9.04, 14.71 9.46, 14.56 9.86 C14.41 10.25, 14.22 10.65, 14 11.02 C13.79 11.38, 13.53 11.74, 13.25 12.06 C12.98 12.39, 12.66 12.7, 12.33 12.97 C12 13.24, 11.63 13.49, 11.26 13.7 C10.88 13.92, 10.48 14.1, 10.07 14.24 C9.66 14.39, 9.24 14.5, 8.81 14.58 C8.38 14.65, 7.94 14.69, 7.51 14.69 C7.07 14.69, 6.63 14.65, 6.2 14.58 C5.77 14.5, 5.35 14.39, 4.94 14.24 C4.53 14.1, 4.13 13.92, 3.75 13.7 C3.38 13.49, 3.01 13.24, 2.68 12.97 C2.35 12.7, 2.04 12.39, 1.76 12.06 C1.48 11.74, 1.22 11.38, 1.01 11.02 C0.79 10.65, 0.6 10.25, 0.45 9.86 C0.3 9.46, 0.19 9.04, 0.11 8.62 C0.04 8.2, 0 7.77, 0 7.34 C0 6.92, 0.04 6.49, 0.11 6.07 C0.19 5.65, 0.3 5.23, 0.45 4.83 C0.6 4.43, 0.79 4.04, 1.01 3.67 C1.22 3.3, 1.48 2.95, 1.76 2.62 C2.04 2.3, 2.35 1.99, 2.68 1.72 C3.01 1.44, 3.38 1.2, 3.75 0.98 C4.13 0.77, 4.53 0.59, 4.94 0.44 C5.35 0.3, 5.77 0.19, 6.2 0.11 C6.63 0.04, 7.07 0, 7.51 0 C7.94 0, 8.38 0.04, 8.81 0.11 C9.24 0.19, 9.66 0.3, 10.07 0.44 C10.48 0.59, 10.88 0.77, 11.26 0.98 C11.63 1.2, 12 1.44, 12.33 1.72 C12.66 1.99, 12.98 2.3, 13.25 2.62 C13.53 2.95, 13.79 3.3, 14 3.67 C14.22 4.04, 14.41 4.43, 14.56 4.83 C14.71 5.23, 14.82 5.65, 14.9 6.07 C14.97 6.49, 14.99 7.13, 15.01 7.34 C15.03 7.56, 15.03 7.13, 15.01 7.34" stroke="#1e1e1e" stroke-width="1" fill="none"></path></g><g transform="translate(10 10) rotate(0 15.887992858886719 10)"><text x="15.887992858886719" y="14.016" font-family="Virgil, Segoe UI Emoji" font-size="16px" fill="#1e1e1e" text-anchor="middle" style="white-space: pre;" direction="ltr" dominant-baseline="alphabetic">main</text></g><g transform="translate(10 62.43567549999992) rotate(0 17.759986877441406 10)"><text x="17.759986877441406" y="14.016" font-family="Virgil, Segoe UI Emoji" font-size="16px" fill="#1e1e1e" text-anchor="middle" style="white-space: pre;" direction="ltr" dominant-baseline="alphabetic">test</text></g><g transform="translate(10 112.24418349999993) rotate(0 28.35198211669922 10)"><text x="28.35198211669922" y="14.016" font-family="Virgil, Segoe UI Emoji" font-size="16px" fill="#1e1e1e" text-anchor="middle" style="white-space: pre;" direction="ltr" dominant-baseline="alphabetic">release</text></g></svg>