<?xml version="1.0" standalone="no"?>
<!DOCTYPE svg PUBLIC "-//W3C//DTD SVG 20010904//EN"
 "http://www.w3.org/TR/2001/REC-SVG-20010904/DTD/svg10.dtd">
<svg version="1.0" xmlns="http://www.w3.org/2000/svg"
 width="400.000000pt" height="400.000000pt" viewBox="0 0 400.000000 400.000000"
 preserveAspectRatio="xMidYMid meet">
<metadata>
Created by potrace 1.14, written by Peter Selinger 2001-2017
</metadata>
<g transform="translate(0.000000,400.000000) scale(0.100000,-0.100000)"
fill="#000000" stroke="none">
<path d="M1611 3733 c-43 -37 -49 -85 -25 -190 9 -43 18 -82 20 -88 1 -5 14
-56 29 -112 15 -56 28 -110 30 -120 2 -10 4 -19 5 -20 2 -2 3 -6 4 -10 23
-110 73 -286 88 -311 33 -55 56 -61 238 -61 176 0 205 7 236 54 9 13 20 39 24
57 179 717 181 728 160 768 -5 10 -25 28 -44 39 -32 20 -46 21 -383 21 l-349
0 -33 -27z"/>
<path d="M270 3045 c-134 -36 -226 -130 -260 -267 -7 -30 -10 -387 -8 -1153
l3 -1110 29 -63 c37 -80 114 -152 193 -182 l57 -21 1705 -1 c1820 -1 1750 -3
1838 48 50 29 78 63 132 163 l41 73 0 1107 c0 1084 0 1109 -20 1166 -46 134
-120 207 -241 239 -43 11 -171 14 -619 15 -311 1 -570 -2 -576 -6 -7 -5 -26
-59 -43 -121 -40 -145 -65 -196 -121 -253 -78 -78 -116 -87 -380 -88 l-225 -1
-60 29 c-107 51 -193 162 -210 271 -12 78 -34 153 -47 162 -22 14 -1136 7
-1188 -7z m1043 -471 c126 -38 241 -143 304 -279 25 -54 28 -71 28 -165 0
-109 -10 -152 -55 -236 -13 -23 -33 -54 -46 -70 l-24 -27 52 -35 c65 -43 144
-121 187 -185 33 -49 88 -160 96 -193 2 -11 9 -37 14 -58 5 -22 10 -149 11
-283 0 -201 -2 -248 -15 -273 -32 -63 -15 -61 -685 -61 -672 0 -652 -2 -686
62 -13 26 -16 68 -16 243 0 250 5 296 38 399 44 134 137 254 264 340 25 17 47
31 49 33 1 1 -14 31 -35 65 -62 99 -83 177 -80 289 3 85 7 103 38 170 19 41
54 96 76 121 118 132 322 193 485 143z m1724 -268 c21 -25 24 -37 21 -78 -5
-52 -27 -84 -68 -100 -33 -13 -767 -13 -800 0 -41 16 -63 48 -68 102 -4 48 -3
52 32 85 l37 35 377 2 c214 2 391 -1 410 -6 18 -6 45 -23 59 -40z m415 -428
c67 -24 97 -103 62 -169 -31 -61 -26 -61 -695 -61 -668 0 -651 -1 -684 62 -36
70 -4 149 70 171 35 10 1217 7 1247 -3z m12 -473 c88 -42 87 -168 -1 -210 -34
-17 -82 -18 -638 -18 -662 1 -658 0 -689 62 -33 62 -10 141 47 166 50 22 1235
21 1281 0z m2 -471 c81 -38 85 -157 8 -205 -33 -20 -41 -21 -648 -21 -664 0
-653 -1 -687 54 -21 33 -23 91 -4 128 31 60 21 59 688 60 543 0 613 -2 643
-16z"/>
<path d="M1111 2338 c-97 -27 -161 -113 -161 -218 0 -248 336 -320 441 -95 36
78 18 192 -40 252 -54 56 -160 83 -240 61z"/>
<path d="M1110 1642 c-106 -17 -223 -81 -283 -154 -86 -105 -114 -202 -116
-403 l-2 -132 460 -1 c346 -1 462 2 469 11 16 20 8 294 -11 354 -42 137 -169
268 -302 309 -49 16 -165 25 -215 16z"/>
</g>
</svg>
